<svg width="20" height="20" viewBox="0 0 20 20" fill="none" xmlns="http://www.w3.org/2000/svg">
<path fill-rule="evenodd" clip-rule="evenodd" d="M4.375 16.6667C4.375 16.3215 4.65482 16.0417 5 16.0417L15 16.0417C15.3452 16.0417 15.625 16.3215 15.625 16.6667C15.625 17.0119 15.3452 17.2917 15 17.2917L5 17.2917C4.65482 17.2917 4.375 17.0119 4.375 16.6667Z" fill="#AB5CFA"/>
<path fill-rule="evenodd" clip-rule="evenodd" d="M9.55798 2.89137C9.80205 2.64729 10.1978 2.64729 10.4419 2.89137L13.3585 5.80804C13.6026 6.05212 13.6026 6.44784 13.3585 6.69192C13.1144 6.936 12.7187 6.936 12.4746 6.69192L10.6249 4.8422V13.3333C10.6249 13.6785 10.3451 13.9583 9.99992 13.9583C9.65474 13.9583 9.37492 13.6785 9.37492 13.3333V4.8422L7.52519 6.69192C7.28112 6.936 6.88539 6.936 6.64131 6.69192C6.39723 6.44784 6.39723 6.05212 6.64131 5.80804L9.55798 2.89137Z" fill="#AB5CFA"/>
</svg>
