<svg width="20" height="21" viewBox="0 0 20 21" fill="none" xmlns="http://www.w3.org/2000/svg">
<path fill-rule="evenodd" clip-rule="evenodd" d="M17.1801 7.95377C18.075 7.05881 18.075 5.60781 17.1801 4.71286L16.0016 3.53435C15.1066 2.6394 13.6556 2.6394 12.7607 3.53435L3.51429 12.7807C3.13379 13.1612 2.89932 13.6635 2.85197 14.1995L2.65023 16.4832C2.57035 17.3874 3.32705 18.1441 4.23123 18.0642L6.51491 17.8625C7.05094 17.8151 7.55321 17.5806 7.93371 17.2001L17.1801 7.95377ZM16.2962 5.59674C16.703 6.00354 16.703 6.66309 16.2962 7.06988L15.5048 7.86127L12.8532 5.20962L13.6446 4.41823C14.0513 4.01144 14.7109 4.01144 15.1177 4.41823L16.2962 5.59674ZM11.9693 6.0935L14.6209 8.74515L7.04982 16.3163C6.87687 16.4892 6.64857 16.5958 6.40492 16.6173L4.12124 16.8191C3.99207 16.8305 3.88397 16.7224 3.89538 16.5932L4.09712 14.3095C4.11864 14.0659 4.22522 13.8376 4.39817 13.6646L11.9693 6.0935Z" fill="#FCFCFC"/>
</svg>
