<svg width="16" height="16" viewBox="0 0 16 16" fill="none" xmlns="http://www.w3.org/2000/svg">
<path fill-rule="evenodd" clip-rule="evenodd" d="M3.5 13.3334C3.5 13.0572 3.72386 12.8334 4 12.8334L12 12.8334C12.2761 12.8334 12.5 13.0572 12.5 13.3334C12.5 13.6095 12.2761 13.8334 12 13.8334L4 13.8334C3.72386 13.8334 3.5 13.6095 3.5 13.3334Z" fill="#FCFCFC"/>
<path fill-rule="evenodd" clip-rule="evenodd" d="M7.64653 2.31307C7.84179 2.11781 8.15837 2.11781 8.35363 2.31307L10.687 4.64641C10.8822 4.84167 10.8822 5.15825 10.687 5.35351C10.4917 5.54877 10.1751 5.54877 9.97986 5.35351L8.50008 3.87373V10.6666C8.50008 10.9428 8.27622 11.1666 8.00008 11.1666C7.72394 11.1666 7.50008 10.9428 7.50008 10.6666V3.87373L6.0203 5.35351C5.82504 5.54877 5.50846 5.54877 5.31319 5.35351C5.11793 5.15825 5.11793 4.84167 5.31319 4.64641L7.64653 2.31307Z" fill="#FCFCFC"/>
</svg>
