<svg width="24" height="24" viewBox="0 0 24 24" fill="none" xmlns="http://www.w3.org/2000/svg">
<path fill-rule="evenodd" clip-rule="evenodd" d="M11.2499 10.9875L2.69531 7.18541L3.30452 5.8147L11.9999 9.67932L20.6953 5.8147L21.3045 7.18541L12.7499 10.9875V21.5001H11.2499V10.9875Z" fill="#FCFCFC"/>
<path fill-rule="evenodd" clip-rule="evenodd" d="M11.4517 1.923C11.8008 1.76786 12.1992 1.76786 12.5483 1.923L20.9483 5.65633C21.4358 5.873 21.75 6.35647 21.75 6.88997V17.1101C21.75 17.6436 21.4358 18.1271 20.9483 18.3438L12.5483 22.0771C12.1992 22.2322 11.8008 22.2322 11.4517 22.0771L3.05171 18.3438C2.56419 18.1271 2.25 17.6436 2.25 17.1101V6.88997C2.25 6.35647 2.56419 5.873 3.05171 5.65633L11.4517 1.923ZM3.75 6.98745V17.0126L12 20.6793L20.25 17.0126V6.98745L12 3.32079L3.75 6.98745Z" fill="#FCFCFC"/>
<path fill-rule="evenodd" clip-rule="evenodd" d="M6.81458 4.19534C6.98281 3.81683 7.42603 3.64636 7.80455 3.81458L16.4482 7.65622C16.9358 7.8729 17.2499 8.35636 17.2499 8.88987V12.4999C17.2499 12.9142 16.9142 13.2499 16.4999 13.2499C16.0857 13.2499 15.7499 12.9142 15.7499 12.4999V8.98735L7.19534 5.1853C6.81683 5.01707 6.64636 4.57385 6.81458 4.19534Z" fill="#FCFCFC"/>
</svg>
